<?xml version="1.0" encoding="utf-8"?>
<!-- Generator: Adobe Illustrator 21.0.2, SVG Export Plug-In . SVG Version: 6.00 Build 0)  -->
<svg version="1.1"
	 id="svg3402" inkscape:version="0.91 r13725" sodipodi:docname="logo.svg" xmlns:cc="http://creativecommons.org/ns#" xmlns:dc="http://purl.org/dc/elements/1.1/" xmlns:inkscape="http://www.inkscape.org/namespaces/inkscape" xmlns:rdf="http://www.w3.org/1999/02/22-rdf-syntax-ns#" xmlns:sodipodi="http://sodipodi.sourceforge.net/DTD/sodipodi-0.dtd" xmlns:svg="http://www.w3.org/2000/svg"
	 xmlns="http://www.w3.org/2000/svg" xmlns:xlink="http://www.w3.org/1999/xlink" x="0px" y="0px" viewBox="0 0 530 178"
	 style="enable-background:new 0 0 530 178;" xml:space="preserve">
<style type="text/css">
	.st0{font-family:'Arial-BoldItalicMT';}
	.st1{font-size:62.3512px;}
	.st2{fill:none;stroke:#000000;}
	.st3{fill:#FFDD55;}
	.st4{fill:#C83737;}
</style>
<sodipodi:namedview  bordercolor="#666666" borderopacity="1.0" id="base" inkscape:current-layer="layer1" inkscape:cx="323.74369" inkscape:cy="809.05251" inkscape:document-units="px" inkscape:pageopacity="0.0" inkscape:pageshadow="2" inkscape:window-height="942" inkscape:window-maximized="0" inkscape:window-width="1280" inkscape:window-x="21" inkscape:window-y="11" inkscape:zoom="0.49497475" pagecolor="#ffffff" showgrid="false">
	</sodipodi:namedview>
<g id="layer1" inkscape:groupmode="layer" inkscape:label="Layer 1">
	<text transform="matrix(1.2386 0 0 1 144.001 149.2119)" class="st0 st1">Rodriguez</text>
	
		<path id="path3416" sodipodi:argument="-18.585592" sodipodi:cx="148.71501" sodipodi:cy="355.02649" sodipodi:expansion="1" sodipodi:radius="121.10171" sodipodi:revolution="3.3176346" sodipodi:t0="0.013262241" sodipodi:type="spiral" class="st2" d="
		M60.5,119c2.7,2.2-2.2,4.3-4.6,4.3c-6.3-0.2-9-5.8-7.7-9.9c2.4-6.9,13-9.7,21.2-7.4c11.9,3.2,16.4,14.1,11.8,22.6
		c-6,11.2-23.9,15.4-37.9,10.6c-17.5-5.9-23.9-22.4-16-35.3C37,88.3,62.3,82.7,82,90c23.1,8.6,31.4,30.8,20.1,48.1
		c-13,19.8-45.8,26.9-71.2,17C2.2,143.9-8,115.9,6.6,94.3C23,70.1,63.4,61.6,94.5,74.1C129,87.9,141,121.7,123,147.6
		c-19.8,28.5-67.8,38.4-104.5,23.4c-3.5-1.4-6.9-3.1-10.1-4.9"/>
	
		<path id="path3420" inkscape:flatsided="false" inkscape:randomized="0" inkscape:rounded="0" inkscape:transform-center-x="3.129297" inkscape:transform-center-y="-2.2572613" sodipodi:arg1="0.75976275" sodipodi:arg2="1.3880813" sodipodi:cx="349.51279" sodipodi:cy="276.56505" sodipodi:r1="55.732597" sodipodi:r2="27.866299" sodipodi:sides="5" sodipodi:type="star" class="st3" d="
		M280.5,83l-39-9.8l-32.1,20.4l-0.5-33L175,42.3l38.7-10.6L224.8,0l24.4,26.4l40.8-1.3l-23.6,26.9L280.5,83z"/>
	
		<path id="path3422" inkscape:flatsided="false" inkscape:randomized="0" inkscape:rounded="0" inkscape:transform-center-x="3.7606547" inkscape:transform-center-y="1.2449965" sodipodi:arg1="-1.9655874" sodipodi:arg2="-1.3372689" sodipodi:cx="476.79202" sodipodi:cy="256.362" sodipodi:r1="78.791901" sodipodi:r2="39.39595" sodipodi:sides="5" sodipodi:type="star" class="st4" d="
		M385.4,5.6l29,19.5l37.3-7.3L436.6,45l20.6,25l-38.4-2.6l-24.6,22.8l-8.6-28.8l-35.8-10.9L383,35.2L385.4,5.6z"/>
</g>
</svg>
